<mxfile host="app.diagrams.net" modified="2022-07-29T11:56:49.241Z" agent="5.0 (Windows NT 10.0; Win64; x64) AppleWebKit/537.36 (KHTML, like Gecko) Chrome/103.0.0.0 Safari/537.36" etag="gs6TAwQt_rqirRG0rWb9" version="20.2.2" type="github">
  <diagram name="Page-1" id="c4acf3e9-155e-7222-9cf6-157b1a14988f">
    <mxGraphModel dx="948" dy="508" grid="1" gridSize="10" guides="1" tooltips="1" connect="1" arrows="1" fold="1" page="1" pageScale="1" pageWidth="850" pageHeight="1100" background="none" math="0" shadow="0">
      <root>
        <mxCell id="0" />
        <mxCell id="1" parent="0" />
        <mxCell id="5d2195bd80daf111-10" value="&lt;p style=&quot;margin:0px;margin-top:4px;text-align:center;&quot;&gt;&lt;i&gt;Funcionario (Juridica)&lt;/i&gt;&lt;/p&gt;&lt;hr size=&quot;1&quot;&gt;&lt;p style=&quot;margin:0px;margin-left:4px;&quot;&gt;+ cadastro: int&lt;br&gt;+ funcao: str&lt;/p&gt;&lt;p style=&quot;margin:0px;margin-left:4px;&quot;&gt;+ turno: str&lt;/p&gt;&lt;hr size=&quot;1&quot;&gt;&lt;p style=&quot;margin:0px;margin-left:4px;&quot;&gt;-&lt;/p&gt;" style="verticalAlign=top;align=left;overflow=fill;fontSize=12;fontFamily=Helvetica;html=1;rounded=0;shadow=0;comic=0;labelBackgroundColor=none;strokeWidth=1" parent="1" vertex="1">
          <mxGeometry x="130" y="520" width="190" height="140" as="geometry" />
        </mxCell>
        <mxCell id="5d2195bd80daf111-18" value="&lt;p style=&quot;margin:0px;margin-top:4px;text-align:center;&quot;&gt;&lt;i&gt;Pessoa&lt;/i&gt;&lt;/p&gt;&lt;hr size=&quot;1&quot;&gt;&lt;p style=&quot;margin:0px;margin-left:4px;&quot;&gt;+ nome: str&lt;br&gt;&lt;span style=&quot;background-color: initial;&quot;&gt;+ dataNascimento: date&lt;/span&gt;&lt;br&gt;&lt;/p&gt;&lt;p style=&quot;margin:0px;margin-left:4px;&quot;&gt;+ endereco: Endereço&lt;/p&gt;&lt;p style=&quot;margin:0px;margin-left:4px;&quot;&gt;+ CPF: str/int&lt;/p&gt;&lt;p style=&quot;margin:0px;margin-left:4px;&quot;&gt;+ id: str&lt;/p&gt;&lt;p style=&quot;margin:0px;margin-left:4px;&quot;&gt;+ genero: str&lt;/p&gt;&lt;hr size=&quot;1&quot;&gt;&lt;p style=&quot;margin:0px;margin-left:4px;&quot;&gt;- calculo_idade()&lt;br&gt;&lt;br&gt;&lt;/p&gt;" style="verticalAlign=top;align=left;overflow=fill;fontSize=12;fontFamily=Helvetica;html=1;rounded=0;shadow=0;comic=0;labelBackgroundColor=none;strokeWidth=1" parent="1" vertex="1">
          <mxGeometry x="250" y="40" width="190" height="220" as="geometry" />
        </mxCell>
        <mxCell id="5d2195bd80daf111-19" value="&lt;p style=&quot;margin:0px;margin-top:4px;text-align:center;&quot;&gt;&lt;i&gt;Endereço&lt;/i&gt;&lt;/p&gt;&lt;hr size=&quot;1&quot;&gt;&lt;p style=&quot;margin:0px;margin-left:4px;&quot;&gt;+ rua: str&lt;br&gt;+ numero: int&lt;/p&gt;&lt;p style=&quot;margin:0px;margin-left:4px;&quot;&gt;+ complemento: str&lt;/p&gt;&lt;p style=&quot;margin:0px;margin-left:4px;&quot;&gt;+ CEP: int&lt;/p&gt;&lt;p style=&quot;margin:0px;margin-left:4px;&quot;&gt;+ cidade: str&lt;/p&gt;&lt;p style=&quot;margin:0px;margin-left:4px;&quot;&gt;+ estado: str&lt;/p&gt;&lt;hr size=&quot;1&quot;&gt;&lt;p style=&quot;margin:0px;margin-left:4px;&quot;&gt;-&amp;nbsp;&lt;/p&gt;" style="verticalAlign=top;align=left;overflow=fill;fontSize=12;fontFamily=Helvetica;html=1;rounded=0;shadow=0;comic=0;labelBackgroundColor=none;strokeWidth=1" parent="1" vertex="1">
          <mxGeometry x="640" y="40" width="190" height="180" as="geometry" />
        </mxCell>
        <mxCell id="TUp7M5TeGNdGs_yEIBRn-2" value="&lt;p style=&quot;margin:0px;margin-top:4px;text-align:center;&quot;&gt;&lt;i&gt;Responsável (Fisica)&lt;/i&gt;&lt;/p&gt;&lt;hr size=&quot;1&quot;&gt;&lt;p style=&quot;margin:0px;margin-left:4px;&quot;&gt;+ cadastro: int&lt;br&gt;+ responsável: str&lt;/p&gt;&lt;p style=&quot;margin:0px;margin-left:4px;&quot;&gt;+&amp;nbsp;&lt;/p&gt;&lt;hr size=&quot;1&quot;&gt;&lt;p style=&quot;margin:0px;margin-left:4px;&quot;&gt;-&lt;/p&gt;" style="verticalAlign=top;align=left;overflow=fill;fontSize=12;fontFamily=Helvetica;html=1;rounded=0;shadow=0;comic=0;labelBackgroundColor=none;strokeWidth=1" vertex="1" parent="1">
          <mxGeometry x="650" y="520" width="190" height="140" as="geometry" />
        </mxCell>
        <mxCell id="TUp7M5TeGNdGs_yEIBRn-3" value="&lt;p style=&quot;margin:0px;margin-top:4px;text-align:center;&quot;&gt;&lt;i&gt;Juridica (Pessoa)&lt;/i&gt;&lt;/p&gt;&lt;hr size=&quot;1&quot;&gt;&lt;p style=&quot;margin:0px;margin-left:4px;&quot;&gt;&lt;span style=&quot;background-color: initial;&quot;&gt;+ CNPJ: str/int&lt;/span&gt;&lt;/p&gt;&lt;p style=&quot;margin:0px;margin-left:4px;&quot;&gt;&lt;span style=&quot;background-color: initial;&quot;&gt;&lt;br&gt;&lt;/span&gt;&lt;/p&gt;&lt;hr size=&quot;1&quot;&gt;&lt;p style=&quot;margin:0px;margin-left:4px;&quot;&gt;-&amp;nbsp;&lt;br&gt;&lt;br&gt;&lt;/p&gt;" style="verticalAlign=top;align=left;overflow=fill;fontSize=12;fontFamily=Helvetica;html=1;rounded=0;shadow=0;comic=0;labelBackgroundColor=none;strokeWidth=1" vertex="1" parent="1">
          <mxGeometry x="130" y="300" width="190" height="120" as="geometry" />
        </mxCell>
        <mxCell id="TUp7M5TeGNdGs_yEIBRn-4" value="&lt;p style=&quot;margin:0px;margin-top:4px;text-align:center;&quot;&gt;&lt;i&gt;Fisica (Pessoa)&lt;/i&gt;&lt;/p&gt;&lt;hr size=&quot;1&quot;&gt;&lt;p style=&quot;margin:0px;margin-left:4px;&quot;&gt;&lt;span style=&quot;background-color: initial;&quot;&gt;+ CPF: str/int&lt;/span&gt;&lt;br&gt;&lt;/p&gt;&lt;p style=&quot;margin:0px;margin-left:4px;&quot;&gt;&lt;br&gt;&lt;/p&gt;&lt;hr size=&quot;1&quot;&gt;&lt;p style=&quot;margin:0px;margin-left:4px;&quot;&gt;-&amp;nbsp;&lt;br&gt;&lt;br&gt;&lt;/p&gt;" style="verticalAlign=top;align=left;overflow=fill;fontSize=12;fontFamily=Helvetica;html=1;rounded=0;shadow=0;comic=0;labelBackgroundColor=none;strokeWidth=1" vertex="1" parent="1">
          <mxGeometry x="400" y="300" width="190" height="120" as="geometry" />
        </mxCell>
        <mxCell id="TUp7M5TeGNdGs_yEIBRn-6" value="&lt;p style=&quot;margin:0px;margin-top:4px;text-align:center;&quot;&gt;&lt;i&gt;Interno (Fisica)&lt;/i&gt;&lt;/p&gt;&lt;hr size=&quot;1&quot;&gt;&lt;p style=&quot;margin:0px;margin-left:4px;&quot;&gt;+ cadastro: int&lt;br&gt;+ responsavel: str&lt;/p&gt;&lt;p style=&quot;margin:0px;margin-left:4px;&quot;&gt;+ listaRemedios: remedio&lt;/p&gt;&lt;p style=&quot;margin:0px;margin-left:4px;&quot;&gt;+ listaReceituarios: receituario&lt;/p&gt;&lt;p style=&quot;margin:0px;margin-left:4px;&quot;&gt;+ restrições: str&lt;/p&gt;&lt;p style=&quot;margin:0px;margin-left:4px;&quot;&gt;+&amp;nbsp;&lt;/p&gt;&lt;hr size=&quot;1&quot;&gt;&lt;p style=&quot;margin:0px;margin-left:4px;&quot;&gt;-&lt;/p&gt;" style="verticalAlign=top;align=left;overflow=fill;fontSize=12;fontFamily=Helvetica;html=1;rounded=0;shadow=0;comic=0;labelBackgroundColor=none;strokeWidth=1" vertex="1" parent="1">
          <mxGeometry x="400" y="520" width="190" height="180" as="geometry" />
        </mxCell>
        <mxCell id="TUp7M5TeGNdGs_yEIBRn-7" value="&lt;p style=&quot;margin:0px;margin-top:4px;text-align:center;&quot;&gt;&lt;i&gt;Remedio (Produto)&lt;/i&gt;&lt;/p&gt;&lt;hr size=&quot;1&quot;&gt;&lt;p style=&quot;margin:0px;margin-left:4px;&quot;&gt;+ laboratorio: str&lt;/p&gt;&lt;p style=&quot;margin:0px;margin-left:4px;&quot;&gt;+ validade: date&lt;/p&gt;&lt;p style=&quot;margin:0px;margin-left:4px;&quot;&gt;+ tipo: str&lt;br&gt;&lt;/p&gt;&lt;p style=&quot;margin:0px;margin-left:4px;&quot;&gt;+ posologia: srt&lt;/p&gt;&lt;p style=&quot;margin:0px;margin-left:4px;&quot;&gt;+ aprazamento: date&lt;/p&gt;&lt;p style=&quot;margin:0px;margin-left:4px;&quot;&gt;+ dataFim: date&lt;/p&gt;&lt;p style=&quot;margin:0px;margin-left:4px;&quot;&gt;&lt;br&gt;&lt;/p&gt;&lt;hr size=&quot;1&quot;&gt;&lt;p style=&quot;margin:0px;margin-left:4px;&quot;&gt;-&amp;nbsp;&lt;/p&gt;" style="verticalAlign=top;align=left;overflow=fill;fontSize=12;fontFamily=Helvetica;html=1;rounded=0;shadow=0;comic=0;labelBackgroundColor=none;strokeWidth=1" vertex="1" parent="1">
          <mxGeometry x="650" y="700" width="190" height="180" as="geometry" />
        </mxCell>
        <mxCell id="TUp7M5TeGNdGs_yEIBRn-8" value="&lt;p style=&quot;margin:0px;margin-top:4px;text-align:center;&quot;&gt;&lt;i&gt;Receituario&lt;/i&gt;&lt;/p&gt;&lt;hr size=&quot;1&quot;&gt;&lt;p style=&quot;margin:0px;margin-left:4px;&quot;&gt;+ medico: Funcionario&lt;br&gt;+ paciente: Interno&lt;/p&gt;&lt;p style=&quot;margin:0px;margin-left:4px;&quot;&gt;+&amp;nbsp;&lt;/p&gt;&lt;hr size=&quot;1&quot;&gt;&lt;p style=&quot;margin:0px;margin-left:4px;&quot;&gt;-&amp;nbsp;&lt;/p&gt;" style="verticalAlign=top;align=left;overflow=fill;fontSize=12;fontFamily=Helvetica;html=1;rounded=0;shadow=0;comic=0;labelBackgroundColor=none;strokeWidth=1" vertex="1" parent="1">
          <mxGeometry x="880" y="300" width="190" height="180" as="geometry" />
        </mxCell>
        <mxCell id="TUp7M5TeGNdGs_yEIBRn-9" value="&lt;p style=&quot;margin:0px;margin-top:4px;text-align:center;&quot;&gt;&lt;i&gt;Estoque&lt;/i&gt;&lt;/p&gt;&lt;hr size=&quot;1&quot;&gt;&lt;p style=&quot;margin:0px;margin-left:4px;&quot;&gt;+ produto: Produto&lt;br&gt;+ quantidade: int&lt;/p&gt;&lt;p style=&quot;margin:0px;margin-left:4px;&quot;&gt;+ proprietario: Interno&lt;/p&gt;&lt;p style=&quot;margin:0px;margin-left:4px;&quot;&gt;+ localizacao: str&lt;/p&gt;&lt;p style=&quot;margin:0px;margin-left:4px;&quot;&gt;+&amp;nbsp;&lt;/p&gt;&lt;hr size=&quot;1&quot;&gt;&lt;p style=&quot;margin:0px;margin-left:4px;&quot;&gt;-&amp;nbsp;&lt;/p&gt;" style="verticalAlign=top;align=left;overflow=fill;fontSize=12;fontFamily=Helvetica;html=1;rounded=0;shadow=0;comic=0;labelBackgroundColor=none;strokeWidth=1" vertex="1" parent="1">
          <mxGeometry x="880" y="520" width="190" height="180" as="geometry" />
        </mxCell>
        <mxCell id="TUp7M5TeGNdGs_yEIBRn-10" value="&lt;p style=&quot;margin:0px;margin-top:4px;text-align:center;&quot;&gt;&lt;i&gt;Produto&lt;/i&gt;&lt;/p&gt;&lt;hr size=&quot;1&quot;&gt;&lt;p style=&quot;margin:0px;margin-left:4px;&quot;&gt;+ nome: str&lt;br&gt;&lt;/p&gt;&lt;p style=&quot;margin:0px;margin-left:4px;&quot;&gt;&lt;span style=&quot;background-color: initial;&quot;&gt;+ unidade: str&lt;/span&gt;&lt;br&gt;&lt;/p&gt;&lt;p style=&quot;margin:0px;margin-left:4px;&quot;&gt;&lt;span style=&quot;background-color: initial;&quot;&gt;+ tipoProduto:&amp;nbsp;&lt;/span&gt;&lt;/p&gt;&lt;p style=&quot;margin:0px;margin-left:4px;&quot;&gt;&lt;span style=&quot;background-color: initial;&quot;&gt;&lt;br&gt;&lt;/span&gt;&lt;/p&gt;&lt;hr size=&quot;1&quot;&gt;&lt;p style=&quot;margin:0px;margin-left:4px;&quot;&gt;-&amp;nbsp;&lt;/p&gt;" style="verticalAlign=top;align=left;overflow=fill;fontSize=12;fontFamily=Helvetica;html=1;rounded=0;shadow=0;comic=0;labelBackgroundColor=none;strokeWidth=1" vertex="1" parent="1">
          <mxGeometry x="660" y="300" width="190" height="180" as="geometry" />
        </mxCell>
        <mxCell id="TUp7M5TeGNdGs_yEIBRn-11" value="&lt;p style=&quot;margin:0px;margin-top:4px;text-align:center;&quot;&gt;&lt;i&gt;Agenda&lt;/i&gt;&lt;/p&gt;&lt;hr size=&quot;1&quot;&gt;&lt;p style=&quot;margin:0px;margin-left:4px;&quot;&gt;+ paciente: Interno&lt;br&gt;+ listaAtividades: Atividade&lt;/p&gt;&lt;p style=&quot;margin:0px;margin-left:4px;&quot;&gt;&lt;br&gt;&lt;/p&gt;&lt;hr size=&quot;1&quot;&gt;&lt;p style=&quot;margin:0px;margin-left:4px;&quot;&gt;- alarmeAniversario()&lt;/p&gt;" style="verticalAlign=top;align=left;overflow=fill;fontSize=12;fontFamily=Helvetica;html=1;rounded=0;shadow=0;comic=0;labelBackgroundColor=none;strokeWidth=1" vertex="1" parent="1">
          <mxGeometry x="130" y="700" width="190" height="180" as="geometry" />
        </mxCell>
        <mxCell id="TUp7M5TeGNdGs_yEIBRn-12" value="&lt;p style=&quot;margin:0px;margin-top:4px;text-align:center;&quot;&gt;&lt;i&gt;Atividade&lt;/i&gt;&lt;/p&gt;&lt;hr size=&quot;1&quot;&gt;&lt;p style=&quot;margin:0px;margin-left:4px;&quot;&gt;+ descricao: str&lt;br&gt;+ dataInicio: date&lt;/p&gt;&lt;p style=&quot;margin:0px;margin-left:4px;&quot;&gt;+ dataFim: date&lt;/p&gt;&lt;p style=&quot;margin:0px;margin-left:4px;&quot;&gt;+&amp;nbsp;&lt;/p&gt;&lt;p style=&quot;margin:0px;margin-left:4px;&quot;&gt;&lt;br&gt;&lt;/p&gt;&lt;hr size=&quot;1&quot;&gt;&lt;p style=&quot;margin:0px;margin-left:4px;&quot;&gt;-&amp;nbsp;&lt;/p&gt;" style="verticalAlign=top;align=left;overflow=fill;fontSize=12;fontFamily=Helvetica;html=1;rounded=0;shadow=0;comic=0;labelBackgroundColor=none;strokeWidth=1" vertex="1" parent="1">
          <mxGeometry x="400" y="740" width="190" height="180" as="geometry" />
        </mxCell>
      </root>
    </mxGraphModel>
  </diagram>
</mxfile>
